<svg width="32" height="32" viewBox="0 0 32 32" fill="none" xmlns="http://www.w3.org/2000/svg">
<g id="BezierCurve">
<g id="Vector">
<path fill-rule="evenodd" clip-rule="evenodd" d="M1 10C1 9.44772 1.44772 9 2 9H13C13.5523 9 14 9.44772 14 10C14 10.5523 13.5523 11 13 11H2C1.44772 11 1 10.5523 1 10Z" fill="black"/>
<path fill-rule="evenodd" clip-rule="evenodd" d="M18 10C18 9.44772 18.4477 9 19 9H30C30.5523 9 31 9.44772 31 10C31 10.5523 30.5523 11 30 11H19C18.4477 11 18 10.5523 18 10Z" fill="black"/>
<path fill-rule="evenodd" clip-rule="evenodd" d="M16 8C14.8954 8 14 8.89543 14 10C14 11.1046 14.8954 12 16 12C17.1046 12 18 11.1046 18 10C18 8.89543 17.1046 8 16 8ZM12 10C12 7.79086 13.7909 6 16 6C18.2091 6 20 7.79086 20 10C20 12.2091 18.2091 14 16 14C13.7909 14 12 12.2091 12 10Z" fill="black"/>
<path fill-rule="evenodd" clip-rule="evenodd" d="M5 20C3.89543 20 3 20.8954 3 22C3 23.1046 3.89543 24 5 24C6.10457 24 7 23.1046 7 22C7 20.8954 6.10457 20 5 20ZM1 22C1 19.7909 2.79086 18 5 18C7.20914 18 9 19.7909 9 22C9 24.2091 7.20914 26 5 26C2.79086 26 1 24.2091 1 22Z" fill="black"/>
<path fill-rule="evenodd" clip-rule="evenodd" d="M27 20C25.8954 20 25 20.8954 25 22C25 23.1046 25.8954 24 27 24C28.1046 24 29 23.1046 29 22C29 20.8954 28.1046 20 27 20ZM23 22C23 19.7909 24.7909 18 27 18C29.2091 18 31 19.7909 31 22C31 24.2091 29.2091 26 27 26C24.7909 26 23 24.2091 23 22Z" fill="black"/>
<path fill-rule="evenodd" clip-rule="evenodd" d="M18.0123 10.1422C18.1616 9.61047 18.7137 9.30043 19.2454 9.44971C21.4049 10.056 23.3515 11.2547 24.8648 12.9102C26.3782 14.5657 27.3978 16.6119 27.8082 18.817C27.9093 19.36 27.5511 19.882 27.0081 19.9831C26.4651 20.0842 25.9431 19.7259 25.842 19.183C25.4999 17.345 24.65 15.6395 23.3887 14.2596C22.1273 12.8797 20.5048 11.8806 18.7048 11.3753C18.1731 11.226 17.8631 10.6739 18.0123 10.1422Z" fill="black"/>
<path fill-rule="evenodd" clip-rule="evenodd" d="M13.9878 10.1422C14.137 10.6739 13.827 11.226 13.2953 11.3753C11.4953 11.8806 9.8728 12.8797 8.61142 14.2596C7.35004 15.6395 6.50019 17.345 6.1581 19.183C6.05704 19.7259 5.53496 20.0842 4.992 19.9831C4.44904 19.882 4.09081 19.36 4.19187 18.817C4.60229 16.6119 5.6219 14.5657 7.13524 12.9102C8.64858 11.2547 10.5952 10.056 12.7547 9.44971C13.2864 9.30043 13.8385 9.61047 13.9878 10.1422Z" fill="black"/>
</g>
</g>
</svg>
