<svg width="32" height="32" viewBox="0 0 32 32" fill="none" xmlns="http://www.w3.org/2000/svg">
<g id="PencilLine">
<g id="Vector">
<path d="M28.0251 11.9941C28.7993 11.2074 28.7893 9.93794 28.0088 9.17L22.4131 3.57553C22.0329 3.20031 21.5264 2.99269 20.9948 3.0002C20.4607 3.00395 19.9592 3.21657 19.589 3.59179L4.57908 18.6029C4.38397 18.7993 4.23639 19.0282 4.13883 19.2771C4.12507 19.3096 4.11382 19.3421 4.10381 19.3746C4.03627 19.576 4 19.7899 4 20.0087V25.5995C4 26.7026 4.89802 27.6006 6.00115 27.6006H27.0133C27.5661 27.6006 28.0138 27.1529 28.0138 26.6C28.0138 26.0472 27.5661 25.5995 27.0133 25.5995H14.4198L28.0251 11.9941ZM21.0161 5.00635L26.5943 10.5958L24.0128 13.1773L18.4283 7.59284L21.0161 5.00635ZM9.91716 23.098L20.5095 12.5057L22.597 14.5931L12.0046 25.1855L9.91716 23.098ZM17.0112 9.00741L19.0937 11.0899L8.50259 21.6822L6.41639 19.596L17.0112 9.00741ZM5.9974 22.0074L9.58822 25.5982H6.00115L5.9974 22.0074Z" fill="black"/>
</g>
</g>
</svg>
